<svg width="167" height="25" viewBox="0 0 167 25" fill="none" xmlns="http://www.w3.org/2000/svg">
<path d="M4.55615 15.5972L7.2793 7.75781H8.60596L5.18457 17H4.23877L4.55615 15.5972ZM2.01074 7.75781L4.7085 15.5972L5.04492 17H4.09912L0.684082 7.75781H2.01074ZM11.1641 7.75781V17H9.93896V7.75781H11.1641ZM19.2637 16.0034V17H14.3696V16.0034H19.2637ZM14.6172 7.75781V17H13.3921V7.75781H14.6172ZM18.6162 11.7314V12.728H14.3696V11.7314H18.6162ZM19.2002 7.75781V8.76074H14.3696V7.75781H19.2002Z" fill="#222222"/>
<line x1="33" y1="5" x2="33" y2="17" stroke="#777777"/>
<path d="M51.4443 16.0034V17H46.5503V16.0034H51.4443ZM46.7979 7.75781V17H45.5728V7.75781H46.7979ZM50.7969 11.7314V12.728H46.5503V11.7314H50.7969ZM51.3809 7.75781V8.76074H46.5503V7.75781H51.3809ZM60.0708 7.75781V17H58.8394L54.1865 9.87158V17H52.9614V7.75781H54.1865L58.8584 14.9053V7.75781H60.0708ZM69.0718 12.3979V15.7812C68.9575 15.9505 68.7756 16.141 68.5259 16.3525C68.2762 16.5599 67.9313 16.7419 67.4912 16.8984C67.0553 17.0508 66.4925 17.127 65.8027 17.127C65.2399 17.127 64.7215 17.0296 64.2476 16.835C63.7778 16.6361 63.3695 16.3483 63.0225 15.9717C62.6797 15.5908 62.4131 15.1296 62.2227 14.5879C62.0365 14.042 61.9434 13.4242 61.9434 12.7344V12.0171C61.9434 11.3273 62.0238 10.7116 62.1846 10.1699C62.3496 9.62826 62.5908 9.16911 62.9082 8.79248C63.2256 8.41162 63.6149 8.12386 64.0762 7.9292C64.5374 7.73031 65.0664 7.63086 65.6631 7.63086C66.3698 7.63086 66.9601 7.75358 67.4341 7.99902C67.9123 8.24023 68.2847 8.57454 68.5513 9.00195C68.8221 9.42936 68.9956 9.91602 69.0718 10.4619H67.8467C67.7917 10.1276 67.6816 9.82292 67.5166 9.54785C67.3558 9.27279 67.1252 9.05273 66.8247 8.8877C66.5243 8.71842 66.137 8.63379 65.6631 8.63379C65.2357 8.63379 64.8654 8.71208 64.5522 8.86865C64.2391 9.02523 63.981 9.24951 63.7778 9.5415C63.5747 9.8335 63.4224 10.1868 63.3208 10.6016C63.2235 11.0163 63.1748 11.4839 63.1748 12.0044V12.7344C63.1748 13.2676 63.2362 13.7437 63.3589 14.1626C63.4858 14.5815 63.6657 14.9391 63.8984 15.2354C64.1312 15.5273 64.4084 15.7495 64.73 15.9019C65.0558 16.0542 65.4155 16.1304 65.8091 16.1304C66.245 16.1304 66.5983 16.0944 66.8691 16.0225C67.14 15.9463 67.3516 15.8574 67.5039 15.7559C67.6562 15.6501 67.7726 15.5506 67.853 15.4575V13.3882H65.7139V12.3979H69.0718Z" fill="#222222"/>
<path d="M113.802 20.5L110.302 17M112.302 12C112.302 12.9193 112.121 13.8295 111.769 14.6788C111.417 15.5281 110.902 16.2997 110.252 16.9497C109.601 17.5998 108.83 18.1154 107.981 18.4672C107.131 18.8189 106.221 19 105.302 19C104.383 19 103.472 18.8189 102.623 18.4672C101.774 18.1154 101.002 17.5998 100.352 16.9497C99.702 16.2997 99.1864 15.5281 98.8346 14.6788C98.4828 13.8295 98.3018 12.9193 98.3018 12C98.3018 10.1435 99.0393 8.36301 100.352 7.05025C101.665 5.7375 103.445 5 105.302 5C107.158 5 108.939 5.7375 110.252 7.05025C111.564 8.36301 112.302 10.1435 112.302 12Z" stroke="#222222" stroke-linecap="round" stroke-linejoin="round"/>
<path d="M158.5 11.5V7.5C158.5 6.43913 158.079 5.42172 157.328 4.67157C156.578 3.92143 155.561 3.5 154.5 3.5C153.439 3.5 152.422 3.92143 151.672 4.67157C150.921 5.42172 150.5 6.43913 150.5 7.5V11.5H158.5ZM147.5 9.5H161.5L162.5 21.5H146.5L147.5 9.5Z" stroke="#222222" stroke-linecap="round" stroke-linejoin="round"/>
</svg>
